<svg viewBox="0 0 2048 841" xmlns="http://www.w3.org/2000/svg">
    <path
        d="m1598 72 11 1 6 4 5 1 5-1 2-1h10l24 4 3 3-4 6-2 5 29 1 15 5 11-4 1-1 22-2 9 1 3 5 3 9 3 3 7-1 5-4 5-1 2 2h12l7-1 1-1 13-1 4-9v-6h-12l-7-2 2-4 6-3 13 1h9l16 3 1 4-7 3-7 2v2l9 4 6 2 17-1 10 4 11 6h9l9-1h19l11 6 5 3 20-2h12l13 2 4 3v2l5-1 6-8h6l7 3 27 1 5 2 3 3-1 8 2 13-1 2-9 2 1 3 7 5 1 5h-17l-15 4-15 6-8 2h-28l-7 2-3 2-3 16-4 10-10 5-13 13-11 9-5 4h-2l2-5 3-5 1-7-6-15 1-5 4-6 5-5 16-8 9-5 6-4-8 2-5-1-1-7-5-1-15 10-10 7-6 3-11-1-7-3-9 1-6 1h-30l-16 12-16 8-5 3-1 3 9-2 3 6 10-3 6 1 2 2h13l1 5-1 5 6 12-1 5-4 2-1 6 1 9-5 1-3-3-1-3-1-24-1-3-2-1-1 9-6 14-6 7-11 8-11 10-7 5-9-3-4 1-6 5-4 4-3 5-7 5 2 5 5 7 1 7-4 8-5 4-2 1h-6l-4-4 1-5 2-2-1-9-1-2-3 3h-6l1-13v-2l-6 1-4 3-9 1-1-2 2-4v-5l-8 6-12 6v3l4 2 3 3 8 1 7-1 3 3-2 4-10 6-2 2 10 16 2 6 1 13-2 5-7 7-10 8-14 14-10 4-15 3h-9l-1 8 2 4v5l-6 7h-5l-3-4 1-8 3-6v-6l-3-1-5 3-9 8 1 5 6 8 10 11 5 8 1 7-4 11-3 3-10 3-6 7-4 2-8-8-10-13-7-5-3-1-3 12-2 5-4-1-4-8-2-23-1-5-8 3-6 8-4-2-1-4-1-13-4-8-8-10-3-6-5 1-3 3-6 1h-10l-6 4-9 10-3 1-2 4-7 6-9 5-3 4-1 16-5 15-8 15-4 2-3-4-2-10-7-12-10-19-5-14-1-3v-19l-4 1-6 3-5-2-2-6-1-8-7-2-8-7v-2l-5-2-8 5h-5l-2 1h-8l-18-2-6-5-5-5h-6l-2 3-7-1-14-8-6-5-5-9h-5l-2 4 1 5 10 14 9 11 1 3 7-1 10-7 3-1 11 6 10 6 3 3-1 5-12 18-10 9-12 6-34 13-16 6-8 1-3-3-4-13-4-14-6-9-8-8-5-10-4-9-5-7-8-16-9 1 11 23 12 25 8 14 7 11 8 8 6 9 3 11 11-1 25-8h9l-1 7-4 12-6 11-7 10-2 5-7 8-9 5-12 11-7 7-7 9-8 10 1 14 2 9 6 8-1 11 1 5v7l-5 12-4 5-17 9-5 6-1 8 3 10v7l-8 5-6 3h-2l2 11-9 11-10 11-5 6-10 6-9 4-7 1h-10l-10 2-2 1h-8l-6-6-4-17-4-9-9-13-2-4v-11l-4-12-13-25-1-3-1-14 4-10 8-7v-6l-4-6-1-7v-8l-5-10-8-12-10-10 1-6 1-2 1-12 4-7v-5l-7-4h-5l-6 4-6-1-6-9-5-5h-7l-23 9-9 1-11-1-10 1-4 4-2 3-5-2-11-10-8-7-8-9-6-8-5-4-10-6-1-1v-11l-3-5 4-8 4-6 2-5-2-11-3-8 1-7 7-11 7-13 8-7 13-7 2-4v-7l5-10 8-7 11-7-4-7-2-2-11-1-7-9 1-4 3-4v-19l2-3h40l2-3 1-7 1-3-5-6-15-5v-2l12-4 14-4 11-3 2-5-10 5-8-1-4-1h-7l-5 2-4-6-3-2 1-5 7-6 2-1v-2l-17-6-1-4-6-9 3-3 9-2 5-3h6l8 5 2 2-1 7 6 8 5 5 8 6 5 7v2l11-3 7-7 7-3 13 1-5-7v-7l5-5 3-2h5l3 4v7l1 4 18 2 4 1 12-4h12l8 1-1-5 4-10 9-3 9 3-4-9 1-1 17-2h14l-2-6-6-1-21 2-6 3-5-5-5-9 2-5 9-6 10-6 4-4h-21l1 5-3 6-6 5-12 3-6 2 2 5 8 4-1 5-8 8-4 11-13 3-8 2h-7l-1-3-1-8-2-5-2-4-7 6-5 2h-9l-5-3-3-5-2-10-1-4 2-4 10-6 16-6 12-9 11-9 7-8 13-5 25-6 9-2h21l20 3 14 4 14 5 26 4 10 3-1 4-4 3-12 3-14 1-10-3 5 6 1 5 12-3 4 2v2h6l1-4 5-5 5-4 8-2 7 5-1-14 2-3h12l1 5-3 5 1 2 8-6 1-1h5l5 1 18-6 3 3 8-1 5-2h16l3 2 5-1 4-2 1-3 2-1h11l7 2 16 3 10 3-2-5-10-7v-3l10-7 10-9 4-1 4 3 8 4 2 2-2 14 3 7-2 6-9 7-3 4 12-5 5-4 5-6 4-3 5 2 4 3h6l3-1-2-6-2-2h-8l-10 5-3-3v-17l4-4 3 1 3 10 5-1 2-7 3-4h7l9 6 9 4 4 4 1 3 4 1 1-5-5-5-10-5-4-3 1-3 13-1 5 1 10-3 15-7 8-2h18l11-5h13l6 2h7l15-6zm-412 93-1 4 3 3 2 1h6l2-1-2-4-6-3zm117 80-10 5-14 1-6 7 1 6 8 11 4 4 10 4 1 2-2 3-9 4-2 4 3 7 9 4 8 2h9l5-3 1-6-5-11 1-10-8-8-9-7 1-4 4-2 8 1h9l1-3-6-8-5-3zm-118 5-8 11-4 5-6 5 1 4 2 4-2 4 1 1 7-1 5-1 2 1h6l8-5h13l12 5h20l7-4-3-5-7-6-13-8-7-2 5-4-1-3h-6l-5 5-7 6h-6l-2-5-6-7zm-106 7 1 5 9 8 5 5 12 7 5 4 1 2-8 1 2 10-4-2-6-10-19-8-8-6-3-5-3-2h-6l-11 6h-5l-9-3-3 1-3 9-9 4-4 2v2l-4 2-2 4 1 5-9 7-11 3h-7l-2 2v6h12l30-10 35-2 9-1 5 6 2 5v3l-6 4 1 3 15 8 13 4 9 5 12 2 15-12 9 1 5 2 7 1 19 1-2 5-8 6v3l5-2 4-5 6-3 7-2 8 1 6 3 9-7 5-9 3-13v-4l-10 1-11 2-4-2h-13l-6-3-9-5-3-1v-12l-2-5-5 1-10 6 5 5 2 4-5 5-6 4h-4l-8-15-10-14-11-9-12-9-6-4zm114 259-1 1-1 12 1 2 6-1 7-10-2-4zM334 72l8 1 8 5 12 1 7 4 8-1 3-3 3-2h5l3 3v2h5l3-2 5 1-1 10-6 6h12l1 1v5l-2 4 5 2 2 2 12 2 3 2-1 5-6 3-17 3-1 3 37 1h5v-7l-5-2 2-3h10l3 4 2 9h5l4-2h4l-7-18 2-4 5-1 5 3 5 5 1 3 4 2 2 3h6l2-2 5 1 4 4-2 6 8-4 8-6 1-2-21-2-8-5-2-5v-5l3-3 13-5 9 2 1 4-1 7 6-1 2-8 29-2 10-1 12 5 20 8 12 3 13 2 3 3 2 9 1 1h8l16 8 7 1 2 2-1 4-8 5-8 1-11-5-5-1 2 4 11 7 2 5-1 4-2 1-5-3-4 1-3 2h-7l-7-3-10-2-13-5-10-1h-9l-2 1h-6l-2-5 3-5 5-1h8l5-3 9-7h2l-1-2-7-1-4 5-3 1h-11l6-8-2-5h-8l-1-3h-3l-2 3h-10l-5 2-1 2 7 4-1 5-10 4-6 1h-14v2h13l6 3 2 2 7 2 6 5v3l-2 1h-6l-7-5-5 1-9 3-7-1 3-5-7-5v5l-2 2-13 1-5 3-11 8-8 6-2 3v8l9 2 1 7h5l1-1h6l13 5 21 5h9l4 1 2 8 7 3v9h9l2-1-1-9-3-7-1-5h4l1 2 5-1 7-5-1-4-7-8-3-1 1-4 3-2v-10l4-4 8-1h11l16 6 11 2 1 3-2 5 5 4 8 2 8-7 3-3h5l9 10 7 8 4 5v2l10 1 8 7 3 4 10 4-1 4-6 10 1 3 13 3 6 9 1 5h-16l-3-1-17-1 2-5 5-9 3-2v-6l-14 7-10 4-9 6-3-9-13-1-9 6-7 5 11-3 5-2h6l4 3v10l9-1 2 6h5l5-4 4 3v7l-7 3-17 4-8 3-5-1-1-2 1-5-18 5-5 5 2 8-3 3-15 1-4 6-2 1-3 11-9-1 2 6 3 4-1 3-11 8-15 11-7 5 1 6 5 11 2 5v8l-2 5-4 1-10-12-3-5-1-8-6 1-7-5h-10l-9 1-2 3h-2l-2 4-5-2-2-1-15-1-5 3-5 4-9 4-1 2 2 5-1 9-1 3v11l2 8 4 6 10 7 5 1 5-3h9l1-1 1-10 3-3h19l2 2v6l-5 9-2 10-1 4 12 2 6-3 5 2 6 5-1 12v11l3 7 5 4 6-1 8-4 6 1 6 6 4-1 5-5 5-6 6-4 8-3 2-2 5 1-1 5-2 5v7h2l3-9 6-5h6l2 7 7-3h5l4 5 4-1 5-5 6 1 5 3h6v-2l5-2-1 4-3 4-1 8 5-1 9 4 12 12 9-2 9 3 8 6 8 11 6 5-1 5-13 7h-2l1 2 7-1 7-4h5l1 1v6l-5 4-2 5 5-3 6-8 4-1 9 2 12 7 8 4 5-1 4-1 10 5 9 6 10 4 4 5 2 3v7l-7 16-6 8-9 7-2 4v6l1 5-2 8-1 2-1 10-9 15-3 6-3 1-10 1-14 5-13 8-1 3 3 6-1 6-7 8-4 5-8 1v8l-11 12-9 8-11-3-4-5-2-8 1 9 4 6 3 3-1 7-8 10-3 2h-20l-1 1-1 9-1 2-5-1-8-1 1 4 7 3-2 4-19 19-1 3 9 1 3 2-2 4-6 7-11 8-2 3 1 5 6 9 7 4h8l2 1v2l-9 3-6 1h-19l-3-3-5-2-8-7-3-4-2-7-4-2 2-8-3-1-1-7 2-4-1-7-1-4 8-10 2-4-1-16 3-6-1-5-1-1v-7l8-18 3-7-1-12 4-13 3-3v-13l3-23v-13l-4-8-10-7-17-9-8-16-6-10-9-20-10-8-1-4 4-7 1-1v-8l-3-6 2-5 15-14 3-8 1-5v-8l-7-13-4-2-8 9-16-8-13-10-3-7-3-6-6-4-13-2-9-3-9-7-4-4-5-1-4 2-3 4-4-2-7-5h-7l-6-3-7-6-16-8-6-5-1-6-2-8-5-5-10-9-11-14-10-9-6-9-2-5-4 1-2 2 10 11 12 16 3 6 6 5 3 7-4 2-9-6-4-2-6-10-5-4-8-1v-5l4-4-9-8-11-21-5-4-7-2-7-7-16-22-3-6v-15l1-13-2-13-1-3-16-10-5-3v-7l-3-5-6-4-7-8h-2l6 11-1 4-9-3-6-5-1-5 1-9-9-2-5-2-2-2v-5h-2l-1-4-27-8-17-4-6 1-8-3-5 1-6 4-10 4-6 2-2-5 2-5-6 2-1 7-4 7 6-1 1 3-5 5-4 3-6-1-4-3h-5l-6 4-14 5-21 6h-5v-3l5-3 25-11 8-5 1-2H94l-3-3-8 1-4-1 1-7h-5l-2 4h-7l-11-11 1-4 10-6 6-2 10-1 3-2 1-3-14 4H62l-10-3-5-5v-4l16-4 8 1 11 4h2l-3-5-12-5-12-3v-4l10-2 12-7 13-2 9-2 4-5 9 3h10l4 3 4 1h25l26 2 10 2 20 1 9 5 6-2 3-3 7-1h17l4-3 9 1 5 1 5-2 3 4 6-1 4-2 7 1 17 1 7 1 15 5 4-1-5-5-7-6-1-4-5 1-4 3-5 1h-13l-5-3-7-1-2-3 6-5 3-7 1-1 31-1 2-1 9-1-2-5-20 2h-8l-3-1 2-4 8-5 10-3zm14 16-7 2 1 3 18 8 3 1 7-2h15l6 9 3-1-3-7-2-6-2-1-11-1-7 1h-9l-5-3-3-3zm-61 140 5 5 8 6 4 6 3-1-1-5-7-7-7-4zm222 2-15 8-6 3v3h7l7-2 8 1 10 2 3-3 3-1-2-4-8-4-5-3zm10 17v2l-8 2-3 5v21l2 2 6-1 1-17 6-6h9l2 1 2 13 5 1 3-4-1-6-1-4 9 3 1-3-4-5-21-2zm44 14-5 3-9 7-11 6v2l6 1 6-4 11-6 14-6v-2l-2-1zm42 561-3 3-1 6h2l5-7v-2zM774 5h20l21 3 2 4-2 2-13 2-12 1h8l25-4 5-2h20l2 1 2 12 9 15 5 4h6l13-9 4-2h7l9 3 1 4-4 4-14 9-10 8-6 7v7l4 1 1 3-3 8-2 11-1 1-13 1-4 1 2 9 1 7-7 3h-2l-6-9-5-1-1 2 4 4 7 3-1 3-26 8-16 2-7 3-6 7h-16l-15 6h-2l2 4v5l-9 4v6l-4 6-5 4-7-2-3-5-6 3-8-6-11-7-3-3-2-7-6-4-6-12 2-5 2-4h-6l-3-3 1-4 4-5 3-2 4 1 3 3 1 4-1 3h5l-3-9-5-4-5-1-9 7-2-1-1-9-2-10-5-4-15-5-9-2h-22l-3-3v-2l-3 3-2 4-6 1-5-5v-2l-12-3-4-2v-3l2-1h10l10-3 2-5 3-3h9l1-1 2-9 5-4 10 1 5-9 12-3 6-1h12l13 3 7-1 4-2 2-13 3-1 4 2 4 4 10-10 21-8 7-1zm1048 575h3l5 12 11 12 4 8 4 14 5 4 8 4 6 10 9 10 5 10 2 9 1 9v11l-4 13-9 15-6 12-3 3-8 2-8 4h-6l-3-3h-4l-4 5-4-2-4-4-9-3-2-4-1-7-7-6-5-1-3-8h-3l-6 8-4 1-4-2 2-7-5-5-10-3-5-4-13 2-10 3-10-1-5 5-5 7-2 1-13 1-16 6-3 1h-10l-7-7 1-5 6-5-1-7-6-8-1-6-6-8v-6l1-2v-6l-4-6v-7l6-7 14-9h11l6-3 9-1 2-1 2-9 4-5 11-4 4-8 6-7 6 1 7 6h4l1-5 4-4 2-7 3-1 6 5h1l2-7 4 1 3 3 6-1h9l3 4-5 14 5 2 15 8 5 4 3 1 2-6 3-6v-8l-1-11 2-7zm-59-62 5 1v2l9 2 11 2 2-1h9l14 3 22 11 8 8 8 7 6 8 8 8 4 7-1 3-4 1-14-7-4-5-3-6-6-1-6 5-6 9h-6l-9-10h-10v-4l6-3-7-8-6-4-9-1-6-4h-8l-5-2 2-5 3-3v-3l-10-2-2-4zm-86-41h3l3 9 6 3-4 4-2 1 1 7 4 9-2 5-7 7-2 4-2 13h-12l-11-1-7-3-6-5-4-7-3-14 1-2h7l3 1 4-6 10-4 6-8 4-1 5 1 1-8z"
        fill="rgba(162, 185, 208,0.2)" />
    <path
        d="m1289 588 5 1 4 10v8l-8 26-8 21-5 8-4 3h-8l-4-3-2-13-2-5 1-5 2-5v-10l-3-8 5-5 12-6 6-5 7-10zm533-328 9 3 12 2 3 3-1 4-12 3-15 2-2 1 2 7 3 4v6l-3 4-2 12-4 3-17 7-6 5-7-1-6 5h-11l-4 8h-5l-8-11 5-5 10-7 5-3 7 1h8l18-9 5-6 3-17 2-5-3-1v-4l8-3zm-266 226 6 1 14 9 20 18 8 6 8 7 7 4-1 4-3 5v9l8 5 12 3-2 5-1 1h-9l-7-3-4-5v-2l-4-2-12-10-8-7-7-11-4-11-12-13-10-8-2-3zM1396 75h6l1 3-7 8-4 2-34 1-12 3-14 8 2 5 3 4-1 5-4 2h-8l-16-6-6-3 2-4 14-8 14-7 8-5 17-3 30-1 7-3zm-528 63h9l6 2 18-1h14l5 3 1 3-3 3-20 8-4 1h-7l-4-4-10-1-5-4-2-3 1-6zM450 69l11 1 15 4 15 9 2 1 46 1 7 1 4 4v2l-7 1-34-1-7 1-10-2-17-8-15-5-9-5-2-3zm1550 681 5 1 4 4-1 6-11 11-11 9-5 4h-9l-7-3-1-4 9-8 15-10 10-9zm-427-289 4 1 16 17 6 9 6 16 4 6-1 3-6-1-6-4-7-7-7-14-5-13-5-3-1-2v-6zM963 200l7 1 5 5v9l-5 5-11 5-7-1-2-3 1-9-1-2 2-4 8-4zm743 209 5 5 2 6-4 5-5 4 1 3 11 2 4 2v2l-11 5-5 5-5 4-3 4h-2l1-5 8-10-5-5-6-7 2-6 8-7zm-10 112 19 1 2 1-2 4-3 2-6-1v2h2l6 9 2 5-1 4h-5l-5-5-3-7-5 2-2 2h-5l-1-4 4-13z"
        fill="rgba(162, 185, 208,0.2)" />
    <path
        d="m2000 718 5 1 7 13 2 1 11 1v4l-9 12-3 5-3 1-2-7-2-4h-8l3-5 3-3-1-7-3-7zm-276-254 5 1 5 5 1 5-7 8-3 1-6-4-7-3-8-2 2-4 7-3h8zM415 79h20l11 1 1 1v5l-3 3h-12v-2l-5-2-6 1-7 7-4-1-1-5 2-7zm125 306 10 1 14 7 12 5 1 5h-7l-14-7-7-3-24-1 5-5zM439 96h9l4 5 1 5-6 5-7 1-4-7h-11l-2-2 1-5 3-1zm160 307 10 1 6 5 1 6-6 1h-10l-14-4v-3l8-5zM409 62h16l10 3 4 4-1 5h-7l-11-4h-12l-4-2 2-4zm1227 495h12l11 2 5 3 1 5h-18l-8-3-3-4zm221 194 3 1-7 14-7 2-5-4-4-7v-4l8 2 9-3zm-389-289h3l4 8 1 8-3 5-4 1-3-2-1-4v-7zM473 94h6l4 3-1 4-17 3-4-3 2-4 3-2zM372 65h5l2 2v6l-1 1h-11l-6 1-1-5 3-2zm1348 445h5l-1 5-4 1h-23l-1-4zm6 53 6 1 2 2-1 4-11 6h-5l1-5zm-646-266 10 1 7 3 1 1v5l-1 1-7-1-8-6zm666 207h2l1 6-4 10-4 3-2-2 1-8 5-8zm-42-130 3 1-1 7-4 7-4 1-3-4 5-9zm7 78 9 5 2 3-5 2h-8l-3-2 1-5zm239 184 8 1 6 4 1 6-3 1-8-6-4-5zM52 208h4l-1 6-5 4-9 1v-3l8-5zm1006 74 4 2 1 2v6l-5 2-4-4 2-6zm667 164 5 1 1 5-4 4-4-1-2-3 1-4zM6 217h15v4l-4 1H7l-2-3zm2030 394h5l-2 4-6 5h-5l1-4zM627 410l5 2 1 4-1 1h-6l-1-4zM460 85h6l4 3v2l-5 1-4-2zm1232 485h5l1 5-5 2-3-4zM564 415l4 3-1 4-4 1-2-2 1-5zM52 173l6 1-2 4-5-1zm510 201 4 2-2 3h-4v-4zm-14-212 5 2-1 2h-5v-3zm-17-4h5v3h-6zm493 128 3 1-1 5-3-1zm304 85h2l-1 2z"
        fill="rgba(162, 185, 208,0.2)" />
</svg>